<?xml version="1.0" encoding="utf-8"?>
<svg version="1.1" id="Layer_1" xmlns="http://www.w3.org/2000/svg" xmlns:xlink="http://www.w3.org/1999/xlink" x="0px" y="0px"
	 viewBox="0 0 612 612" enable-background="new 0 0 612 612" xml:space="preserve">
<g>
	<g>
		<path fill="#fff" d="M110,130L305,470L500,130H100z"/>
		<path fill="#FF3C3C" d="M90.6,119.4L306,492.6l215.4-373.3H90.6z M306,377.8c-39.6,0-71.8-32.1-71.8-71.8
			c0-39.6,32.1-71.8,71.8-71.8c39.6,0,71.8,32.1,71.8,71.8C377.8,345.6,345.6,377.8,306,377.8z M379.4,255.2c0,0,18-15,30.3-40.9
			c15.5-32.6-11.1-40-76.4-22.5c-23.8,6.4-55.4,17.9-78.7,26.7c-5.3,17-21.1,29.3-39.8,29.3c-23,0-41.6-18.6-41.6-41.6
			c0-23,18.6-41.6,41.6-41.6c9.1,0,17.6,2.9,24.4,7.9c24-5.4,58.3-12.6,94.7-18.8c51.9-8.8,103.2-6.3,103.5,30.5
			C437.9,225.2,379.4,255.2,379.4,255.2z"/>
	</g>
</g>
</svg>
